<svg xmlns="http://www.w3.org/2000/svg" width="96.422" height="90" viewBox="0 0 96.422 90">
  <g id="default-monochrome-black" transform="translate(-0.456 -0.888)">
    <g id="_1009db98-48b9-4017-92f5-9573bf1d9e63" data-name="1009db98-48b9-4017-92f5-9573bf1d9e63" transform="translate(-23.653 -26.434)">
      <path id="Path_2" data-name="Path 2" d="M110.2,41.671l-3.165-7.921h-9l0-6.428A6.429,6.429,0,0,0,91.6,33.748L77.1,45.692,96.061,64.648l11.611-11.614h3.216c5.3,0,9.644-2.009,9.644-6.43V43.391ZM94.821,110.889H91.605V87.5a6.412,6.412,0,0,0,3.213-5.534V71.593l-22.2-22.205L36.964,78.749l.023.03A32.1,32.1,0,0,0,24.55,99.469a14.241,14.241,0,0,0-.441,3.389,14.459,14.459,0,0,0,14.461,14.461h1.611V102.85A17.679,17.679,0,0,1,57.86,85.171a17.493,17.493,0,0,1,4.863.762c-.007-.257-.046-.5-.046-.759,0-8.877,4.318-16.071,9.644-16.071v3.214h3.213a3.211,3.211,0,0,1,3.216,3.216h3.216v3.213h-.006a3.214,3.214,0,0,1-3.213,3.216v0a3.216,3.216,0,1,0,0,6.428v9.645a6.4,6.4,0,0,1-3.216,5.537v10.533h3.216a3.214,3.214,0,0,1,3.216,3.213H98.034V114.1a3.214,3.214,0,0,0-3.213-3.216Z" fill="#16d3c1"/>
    </g>
  </g>
</svg>
